<?xml version="1.0" standalone="no"?><!DOCTYPE svg PUBLIC "-//W3C//DTD SVG 1.1//EN" "http://www.w3.org/Graphics/SVG/1.1/DTD/svg11.dtd"><svg t="1493484770372" class="icon" style="" viewBox="0 0 1024 1024" version="1.1" xmlns="http://www.w3.org/2000/svg" p-id="6661" xmlns:xlink="http://www.w3.org/1999/xlink" width="200" height="200"><defs><style type="text/css"></style></defs><path d="M731.480064 851.314688c-26.585088 96.208896-114.747392 166.88128-219.48416 166.88128-104.73472 0-192.897024-70.674432-219.482112-166.88128H41.345024V790.6304c156.94848 0 182.188032-256.868352 182.188032-466.231296 0-190.038016 150.132736-232.206336 233.777152-240.95744a52.7872 52.7872 0 0 1-6.0416-24.539136c0-29.325312 23.789568-53.098496 53.139456-53.098496 29.34784 0 53.137408 23.773184 53.137408 53.098496 0 8.542208-2.066432 16.584704-5.65248 23.734272 79.169536 5.341184 248.569856 40.323072 248.569856 241.92 0 209.088512 29.984768 465.678336 182.192128 465.678336v60.604416l-251.174912 0.475136z m-219.482112 106.19904c70.801408 0 131.270656-44.050432 155.568128-106.19904H356.429824c24.29952 62.148608 84.768768 106.19904 155.568128 106.19904z m227.735552-632.956928c0-197.285888-227.735552-181.817344-227.735552-181.817344v-0.395264S284.2624 126.855168 284.2624 324.399104c0 241.485824-51.712 404.86912-107.415552 466.231296h670.660608c-55.840768-61.155328-107.773952-224.385024-107.773952-466.0736z" fill="#707070" p-id="6662"></path></svg>